{
  "accessors": [
    {
      "bufferView": 2,
      "componentType": 5126,
      "count": 65533,
      "max": [
        0.09044396132230759,
        7.841078281402588,
        7.104308128356934
      ],
      "min": [
        -7.043661594390869,
        -9.772911071777344,
        0.4658930003643036
      ],
      "type": "VEC3"
    },
    {
      "bufferView": 2,
      "byteOffset": 786396,
      "componentType": 5126,
      "count": 65533,
      "max": [
        0.9999995827674866,
        0.9999623894691467,
        0.9999960660934448
      ],
      "min": [
        -0.9999775290489197,
        -0.9999974370002747,
        -0.999977171421051
      ],
      "type": "VEC3"
    },
    {
      "bufferView": 1,
      "componentType": 5126,
      "count": 65533,
      "max": [
        0.9997307658195496,
        0.9938963651657104
      ],
      "min": [
        0.000244140625,
        0.0002483917633071542
      ],
      "type": "VEC2"
    },
    {
      "bufferView": 0,
      "componentType": 5125,
      "count": 262011,
      "type": "SCALAR"
    },
    {
      "bufferView": 2,
      "byteOffset": 1572792,
      "componentType": 5126,
      "count": 65532,
      "max": [
        0.47377896308898926,
        4.447013854980469,
        7.830173969268799
      ],
      "min": [
        -6.551331520080566,
        -9.879753112792969,
        0.6141129732131958
      ],
      "type": "VEC3"
    },
    {
      "bufferView": 2,
      "byteOffset": 2359176,
      "componentType": 5126,
      "count": 65532,
      "max": [
        0.9999833106994629,
        0.9999010562896729,
        0.9999909996986389
      ],
      "min": [
        -0.9999698400497437,
        -0.9999963641166687,
        -0.9999589920043945
      ],
      "type": "VEC3"
    },
    {
      "bufferView": 1,
      "byteOffset": 524264,
      "componentType": 5126,
      "count": 65532,
      "max": [
        0.999745786190033,
        0.9812010526657104
      ],
      "min": [
        0.000244140625,
        0.00024868978653103113
      ],
      "type": "VEC2"
    },
    {
      "bufferView": 0,
      "byteOffset": 1048044,
      "componentType": 5125,
      "count": 276936,
      "type": "SCALAR"
    },
    {
      "bufferView": 2,
      "byteOffset": 3145560,
      "componentType": 5126,
      "count": 65534,
      "max": [
        0.4535529613494873,
        7.860013008117676,
        7.4138641357421875
      ],
      "min": [
        -4.501668930053711,
        -5.132701873779297,
        0.7692520022392273
      ],
      "type": "VEC3"
    },
    {
      "bufferView": 2,
      "byteOffset": 3931968,
      "componentType": 5126,
      "count": 65534,
      "max": [
        0.9999898076057434,
        0.9999933242797852,
        0.9999792575836182
      ],
      "min": [
        -0.9999984502792358,
        -0.9999352097511292,
        -0.999971330165863
      ],
      "type": "VEC3"
    },
    {
      "bufferView": 1,
      "byteOffset": 1048520,
      "componentType": 5126,
      "count": 65534,
      "max": [
        0.9997550249099731,
        0.9851073026657104
      ],
      "min": [
        0.000244140625,
        0.0002451731124892831
      ],
      "type": "VEC2"
    },
    {
      "bufferView": 0,
      "byteOffset": 2155788,
      "componentType": 5125,
      "count": 217797,
      "type": "SCALAR"
    },
    {
      "bufferView": 2,
      "byteOffset": 4718376,
      "componentType": 5126,
      "count": 65532,
      "max": [
        -0.8170129656791687,
        6.291904926300049,
        6.920434951782227
      ],
      "min": [
        -6.993903160095215,
        -0.6849690079689026,
        1.176805019378662
      ],
      "type": "VEC3"
    },
    {
      "bufferView": 2,
      "byteOffset": 5504760,
      "componentType": 5126,
      "count": 65532,
      "max": [
        0.999962568283081,
        0.9999834895133972,
        0.9999986886978149
      ],
      "min": [
        -0.9999993443489075,
        -0.9999997615814209,
        -0.999977171421051
      ],
      "type": "VEC3"
    },
    {
      "bufferView": 1,
      "byteOffset": 1572792,
      "componentType": 5126,
      "count": 65532,
      "max": [
        0.999755322933197,
        0.9890135526657104
      ],
      "min": [
        0.000244140625,
        0.00025250448379665613
      ],
      "type": "VEC2"
    },
    {
      "bufferView": 0,
      "byteOffset": 3026976,
      "componentType": 5125,
      "count": 275448,
      "type": "SCALAR"
    },
    {
      "bufferView": 2,
      "byteOffset": 6291144,
      "componentType": 5126,
      "count": 65532,
      "max": [
        -0.6611869931221008,
        5.03823184967041,
        6.765489101409912
      ],
      "min": [
        -6.976396083831787,
        -2.1504600048065186,
        1.2324470281600952
      ],
      "type": "VEC3"
    },
    {
      "bufferView": 2,
      "byteOffset": 7077528,
      "componentType": 5126,
      "count": 65532,
      "max": [
        0.9999933242797852,
        0.9999209046363831,
        0.999999463558197
      ],
      "min": [
        -0.9999937415122986,
        -0.999992847442627,
        -0.999977171421051
      ],
      "type": "VEC3"
    },
    {
      "bufferView": 1,
      "byteOffset": 2097048,
      "componentType": 5126,
      "count": 65532,
      "max": [
        0.9997377991676331,
        0.9870604276657104
      ],
      "min": [
        0.000244140625,
        0.0001370502868667245
      ],
      "type": "VEC2"
    },
    {
      "bufferView": 0,
      "byteOffset": 4128768,
      "componentType": 5125,
      "count": 256830,
      "type": "SCALAR"
    },
    {
      "bufferView": 2,
      "byteOffset": 7863912,
      "componentType": 5126,
      "count": 65532,
      "max": [
        -0.00024019373813644052,
        1.4883009195327759,
        7.104018211364746
      ],
      "min": [
        -6.599922180175781,
        -9.781746864318848,
        0.4694579839706421
      ],
      "type": "VEC3"
    },
    {
      "bufferView": 2,
      "byteOffset": 8650296,
      "componentType": 5126,
      "count": 65532,
      "max": [
        0.9999961853027344,
        0.9999239444732666,
        0.9999959468841553
      ],
      "min": [
        -0.9999973773956299,
        -0.9999992847442627,
        -0.9999946355819702
      ],
      "type": "VEC3"
    },
    {
      "bufferView": 1,
      "byteOffset": 2621304,
      "componentType": 5126,
      "count": 65532,
      "max": [
        0.9997510313987732,
        0.9860838651657104
      ],
      "min": [
        0.000244140625,
        0.00028087629470974207
      ],
      "type": "VEC2"
    },
    {
      "bufferView": 0,
      "byteOffset": 5156088,
      "componentType": 5125,
      "count": 233820,
      "type": "SCALAR"
    },
    {
      "bufferView": 2,
      "byteOffset": 9436680,
      "componentType": 5126,
      "count": 65532,
      "max": [
        -0.5286139249801636,
        4.361789703369141,
        7.420013904571533
      ],
      "min": [
        -7.721920490264893,
        -6.439713478088379,
        1.3265069723129272
      ],
      "type": "VEC3"
    },
    {
      "bufferView": 2,
      "byteOffset": 10223064,
      "componentType": 5126,
      "count": 65532,
      "max": [
        0.9999897480010986,
        0.9999449253082275,
        0.9999908208847046
      ],
      "min": [
        -0.9999948740005493,
        -0.9999922513961792,
        -0.9999200105667114
      ],
      "type": "VEC3"
    },
    {
      "bufferView": 1,
      "byteOffset": 3145560,
      "componentType": 5126,
      "count": 65532,
      "max": [
        0.9997328519821167,
        0.9831541776657104
      ],
      "min": [
        0.000244140625,
        0.0002629352966323495
      ],
      "type": "VEC2"
    },
    {
      "bufferView": 0,
      "byteOffset": 6091368,
      "componentType": 5125,
      "count": 252138,
      "type": "SCALAR"
    },
    {
      "bufferView": 2,
      "byteOffset": 11009448,
      "componentType": 5126,
      "count": 65534,
      "max": [
        -0.6820770502090454,
        4.014473915100098,
        6.1591949462890625
      ],
      "min": [
        -4.155617713928223,
        -1.0763471126556396,
        2.4158859252929688
      ],
      "type": "VEC3"
    },
    {
      "bufferView": 2,
      "byteOffset": 11795856,
      "componentType": 5126,
      "count": 65534,
      "max": [
        0.999998927116394,
        0.9999912977218628,
        0.9999999403953552
      ],
      "min": [
        -0.9999881386756897,
        -0.9999915361404419,
        -0.9999904036521912
      ],
      "type": "VEC3"
    },
    {
      "bufferView": 1,
      "byteOffset": 3669816,
      "componentType": 5126,
      "count": 65534,
      "max": [
        0.9997519254684448,
        0.9812010526657104
      ],
      "min": [
        0.000244140625,
        0.00024421943817287683
      ],
      "type": "VEC2"
    },
    {
      "bufferView": 0,
      "byteOffset": 7099920,
      "componentType": 5125,
      "count": 230259,
      "type": "SCALAR"
    },
    {
      "bufferView": 2,
      "byteOffset": 12582264,
      "componentType": 5126,
      "count": 65532,
      "max": [
        -0.47596102952957153,
        5.432024955749512,
        6.136205196380615
      ],
      "min": [
        -4.207262992858887,
        -0.7097660303115845,
        0.7713209986686707
      ],
      "type": "VEC3"
    },
    {
      "bufferView": 2,
      "byteOffset": 13368648,
      "componentType": 5126,
      "count": 65532,
      "max": [
        0.9999951720237732,
        0.9999900460243225,
        0.9999996423721313
      ],
      "min": [
        -0.9999845623970032,
        -0.9999086856842041,
        -0.9998425245285034
      ],
      "type": "VEC3"
    },
    {
      "bufferView": 1,
      "byteOffset": 4194088,
      "componentType": 5126,
      "count": 65532,
      "max": [
        0.9997453093528748,
        0.9812010526657104
      ],
      "min": [
        0.000244140625,
        0.0002527429023757577
      ],
      "type": "VEC2"
    },
    {
      "bufferView": 0,
      "byteOffset": 8020956,
      "componentType": 5125,
      "count": 235497,
      "type": "SCALAR"
    },
    {
      "bufferView": 2,
      "byteOffset": 14155032,
      "componentType": 5126,
      "count": 65532,
      "max": [
        -1.4730160236358643,
        7.56123685836792,
        7.363052845001221
      ],
      "min": [
        -7.711356163024902,
        -5.562341690063477,
        0.931315004825592
      ],
      "type": "VEC3"
    },
    {
      "bufferView": 2,
      "byteOffset": 14941416,
      "componentType": 5126,
      "count": 65532,
      "max": [
        0.9999935030937195,
        0.9999492764472961,
        0.9999924302101135
      ],
      "min": [
        -0.9999931454658508,
        -0.9999903440475464,
        -0.9999188184738159
      ],
      "type": "VEC3"
    },
    {
      "bufferView": 1,
      "byteOffset": 4718344,
      "componentType": 5126,
      "count": 65532,
      "max": [
        0.9997206330299377,
        0.9870604276657104
      ],
      "min": [
        0.000244140625,
        0.00025119318161159754
      ],
      "type": "VEC2"
    },
    {
      "bufferView": 0,
      "byteOffset": 8962944,
      "componentType": 5125,
      "count": 205569,
      "type": "SCALAR"
    },
    {
      "bufferView": 2,
      "byteOffset": 15727800,
      "componentType": 5126,
      "count": 65532,
      "max": [
        -0.48722103238105774,
        7.570797920227051,
        6.149713039398193
      ],
      "min": [
        -7.232491493225098,
        -2.750513792037964,
        0.8159539699554443
      ],
      "type": "VEC3"
    },
    {
      "bufferView": 2,
      "byteOffset": 16514184,
      "componentType": 5126,
      "count": 65532,
      "max": [
        0.9999977350234985,
        0.9999662637710571,
        0.9999749064445496
      ],
      "min": [
        -0.999961256980896,
        -0.999992847442627,
        -0.9997532963752747
      ],
      "type": "VEC3"
    },
    {
      "bufferView": 1,
      "byteOffset": 5242600,
      "componentType": 5126,
      "count": 65532,
      "max": [
        0.999753475189209,
        0.9870604276657104
      ],
      "min": [
        0.000244140625,
        0.00024535192642360926
      ],
      "type": "VEC2"
    },
    {
      "bufferView": 0,
      "byteOffset": 9785220,
      "componentType": 5125,
      "count": 222444,
      "type": "SCALAR"
    },
    {
      "bufferView": 2,
      "byteOffset": 17300568,
      "componentType": 5126,
      "count": 56680,
      "max": [
        -0.007340176962316036,
        0.09237907826900482,
        6.150369167327881
      ],
      "min": [
        -4.072770118713379,
        -4.879950046539307,
        0.595674991607666
      ],
      "type": "VEC3"
    },
    {
      "bufferView": 2,
      "byteOffset": 17980728,
      "componentType": 5126,
      "count": 56680,
      "max": [
        0.9999641180038452,
        0.9999077916145325,
        0.9999999403953552
      ],
      "min": [
        -0.9999973773956299,
        -0.9999971389770508,
        -0.9999904036521912
      ],
      "type": "VEC3"
    },
    {
      "bufferView": 1,
      "byteOffset": 5766856,
      "componentType": 5126,
      "count": 56680,
      "max": [
        0.9997233152389526,
        0.9870604276657104
      ],
      "min": [
        0.000244140625,
        0.0002673460403457284
      ],
      "type": "VEC2"
    },
    {
      "bufferView": 0,
      "byteOffset": 10674996,
      "componentType": 5125,
      "count": 179409,
      "type": "SCALAR"
    }
  ],
  "asset": {
    "extras": {
      "author": "artfletch (https://sketchfab.com/artfletch)",
      "license": "CC-BY-4.0 (http://creativecommons.org/licenses/by/4.0/)",
      "source": "https://sketchfab.com/3d-models/mobile-anti-aircraft-gun-838269e600b14b17bf3f7d60bf23ef73",
      "title": "Mobile Anti Aircraft Gun"
    },
    "generator": "Sketchfab-11.97.0",
    "version": "2.0"
  },
  "bufferViews": [
    {
      "buffer": 0,
      "byteLength": 11392632,
      "name": "floatBufferViews",
      "target": 34963
    },
    {
      "buffer": 0,
      "byteLength": 6220296,
      "byteOffset": 11392632,
      "byteStride": 8,
      "name": "floatBufferViews",
      "target": 34962
    },
    {
      "buffer": 0,
      "byteLength": 18660888,
      "byteOffset": 17612928,
      "byteStride": 12,
      "name": "floatBufferViews",
      "target": 34962
    }
  ],
  "buffers": [
    {
      "byteLength": 36273816,
      "uri": "scene.bin"
    }
  ],
  "extensionsUsed": [
    "KHR_materials_unlit"
  ],
  "images": [
    {
      "uri": "textures/lambert2_baseColor.jpeg"
    }
  ],
  "materials": [
    {
      "doubleSided": true,
      "extensions": {
        "KHR_materials_unlit": {}
      },
      "name": "lambert2",
      "pbrMetallicRoughness": {
        "baseColorTexture": {
          "index": 0
        },
        "metallicFactor": 0.0
      }
    }
  ],
  "meshes": [
    {
      "name": "default1_lambert2_0",
      "primitives": [
        {
          "attributes": {
            "NORMAL": 1,
            "POSITION": 0,
            "TEXCOORD_0": 2
          },
          "indices": 3,
          "material": 0,
          "mode": 4
        }
      ]
    },
    {
      "name": "default1_lambert2_0",
      "primitives": [
        {
          "attributes": {
            "NORMAL": 5,
            "POSITION": 4,
            "TEXCOORD_0": 6
          },
          "indices": 7,
          "material": 0,
          "mode": 4
        }
      ]
    },
    {
      "name": "default1_lambert2_0",
      "primitives": [
        {
          "attributes": {
            "NORMAL": 9,
            "POSITION": 8,
            "TEXCOORD_0": 10
          },
          "indices": 11,
          "material": 0,
          "mode": 4
        }
      ]
    },
    {
      "name": "default1_lambert2_0",
      "primitives": [
        {
          "attributes": {
            "NORMAL": 13,
            "POSITION": 12,
            "TEXCOORD_0": 14
          },
          "indices": 15,
          "material": 0,
          "mode": 4
        }
      ]
    },
    {
      "name": "default1_lambert2_0",
      "primitives": [
        {
          "attributes": {
            "NORMAL": 17,
            "POSITION": 16,
            "TEXCOORD_0": 18
          },
          "indices": 19,
          "material": 0,
          "mode": 4
        }
      ]
    },
    {
      "name": "default1_lambert2_0",
      "primitives": [
        {
          "attributes": {
            "NORMAL": 21,
            "POSITION": 20,
            "TEXCOORD_0": 22
          },
          "indices": 23,
          "material": 0,
          "mode": 4
        }
      ]
    },
    {
      "name": "default1_lambert2_0",
      "primitives": [
        {
          "attributes": {
            "NORMAL": 25,
            "POSITION": 24,
            "TEXCOORD_0": 26
          },
          "indices": 27,
          "material": 0,
          "mode": 4
        }
      ]
    },
    {
      "name": "default1_lambert2_0",
      "primitives": [
        {
          "attributes": {
            "NORMAL": 29,
            "POSITION": 28,
            "TEXCOORD_0": 30
          },
          "indices": 31,
          "material": 0,
          "mode": 4
        }
      ]
    },
    {
      "name": "default1_lambert2_0",
      "primitives": [
        {
          "attributes": {
            "NORMAL": 33,
            "POSITION": 32,
            "TEXCOORD_0": 34
          },
          "indices": 35,
          "material": 0,
          "mode": 4
        }
      ]
    },
    {
      "name": "default1_lambert2_0",
      "primitives": [
        {
          "attributes": {
            "NORMAL": 37,
            "POSITION": 36,
            "TEXCOORD_0": 38
          },
          "indices": 39,
          "material": 0,
          "mode": 4
        }
      ]
    },
    {
      "name": "default1_lambert2_0",
      "primitives": [
        {
          "attributes": {
            "NORMAL": 41,
            "POSITION": 40,
            "TEXCOORD_0": 42
          },
          "indices": 43,
          "material": 0,
          "mode": 4
        }
      ]
    },
    {
      "name": "default1_lambert2_0",
      "primitives": [
        {
          "attributes": {
            "NORMAL": 45,
            "POSITION": 44,
            "TEXCOORD_0": 46
          },
          "indices": 47,
          "material": 0,
          "mode": 4
        }
      ]
    }
  ],
  "nodes": [
    {
      "children": [
        1
      ],
      "matrix": [
        1.0,
        0.0,
        0.0,
        0.0,
        0.0,
        -5.053215392444312e-16,
        1.0,
        0.0,
        0.0,
        -1.0,
        -5.053215392444312e-16,
        0.0,
        -0.00045813340693712234,
        -0.0012719819787889717,
        -0.0011251094983890655,
        1.0
      ],
      "name": "Sketchfab_model"
    },
    {
      "children": [
        2
      ],
      "matrix": [
        0.009999999776482582,
        0.0,
        0.0,
        0.0,
        0.0,
        -0.009999999776482582,
        0.0,
        0.0,
        0.0,
        0.0,
        -0.009999999776482582,
        0.0,
        0.0,
        0.0,
        0.0,
        1.0
      ],
      "name": "CHDGuns02.fbx"
    },
    {
      "children": [
        3
      ],
      "name": "RootNode"
    },
    {
      "children": [
        4,
        5,
        6,
        7,
        8,
        9,
        10,
        11,
        12,
        13,
        14,
        15
      ],
      "matrix": [
        0.9967040143651955,
        -0.08064579532156456,
        0.008795649223132498,
        0.0,
        0.08076462686911053,
        0.9966332610722388,
        -0.014114459649881013,
        0.0,
        -0.0076277647444992595,
        0.014778315921209855,
        0.9998616997282852,
        0.0,
        3.725327968597412,
        0.6529030799865723,
        -4.129837512969971,
        1.0
      ],
      "name": "default1"
    },
    {
      "mesh": 0,
      "name": "default1_lambert2_0"
    },
    {
      "mesh": 1,
      "name": "default1_lambert2_0"
    },
    {
      "mesh": 2,
      "name": "default1_lambert2_0"
    },
    {
      "mesh": 3,
      "name": "default1_lambert2_0"
    },
    {
      "mesh": 4,
      "name": "default1_lambert2_0"
    },
    {
      "mesh": 5,
      "name": "default1_lambert2_0"
    },
    {
      "mesh": 6,
      "name": "default1_lambert2_0"
    },
    {
      "mesh": 7,
      "name": "default1_lambert2_0"
    },
    {
      "mesh": 8,
      "name": "default1_lambert2_0"
    },
    {
      "mesh": 9,
      "name": "default1_lambert2_0"
    },
    {
      "mesh": 10,
      "name": "default1_lambert2_0"
    },
    {
      "mesh": 11,
      "name": "default1_lambert2_0"
    }
  ],
  "samplers": [
    {
      "magFilter": 9729,
      "minFilter": 9987,
      "wrapS": 10497,
      "wrapT": 10497
    }
  ],
  "scene": 0,
  "scenes": [
    {
      "name": "Sketchfab_Scene",
      "nodes": [
        0
      ]
    }
  ],
  "textures": [
    {
      "sampler": 0,
      "source": 0
    }
  ]
}
